<svg width="106" height="138" viewBox="0 0 106 138" fill="none" xmlns="http://www.w3.org/2000/svg">
  <g clip-path="url(#clip0_415_98)">
    <path d="M39 16.7C39.2 16.6 39.4 16.6 39.6 16.5C39.3 16.5 39.2 16.6 39 16.7Z" fill="#5A189A"/>
    <path d="M101.6 65.8008C101.6 66.2008 101.6 66.6008 101.5 67.0008C101.5 66.7008 101.5 66.3008 101.6 65.8008Z" fill="#5A189A"/>
    <path d="M41 16.1008C41.4 16.0008 41.9 15.9008 42.3 15.8008C41.9 15.9008 41.5 16.0008 41 16.1008Z" fill="#5A189A"/>
    <path d="M101.398 58.8008C101.398 59.1008 101.498 59.5008 101.498 59.8008C101.498 59.4008 101.398 59.1008 101.398 58.8008Z" fill="#5A189A"/>
    <path d="M4.40313 69.8C4.30313 69.2 4.30313 68.6 4.20312 68C4.30313 68.7 4.30313 69.2 4.40313 69.8Z" fill="#5A189A"/>
    <path d="M4.1 67.0984C4.1 66.6984 4 66.2984 4 65.8984C4.1 66.2984 4.1 66.6984 4.1 67.0984Z" fill="#5A189A"/>
    <path d="M4.10156 59.8008C4.10156 59.5008 4.20156 59.1008 4.20156 58.8008C4.20156 59.1008 4.20156 59.4008 4.10156 59.8008Z" fill="#5A189A"/>
    <path d="M68.8016 17.2992C68.7016 17.2992 68.7016 17.2992 68.6016 17.1992C68.6016 17.2992 68.7016 17.2992 68.8016 17.2992Z" fill="#5A189A"/>
    <path d="M88.5984 92.0008C90.6984 88.9008 92.4984 85.6008 93.7984 82.2008C95.7984 76.8008 96.6984 71.0008 96.4984 65.3008C96.4984 64.8008 96.3984 64.3008 96.3984 63.8008C95.4984 74.5008 90.4984 84.5008 82.8984 91.6008C82.6984 91.7008 82.5984 91.9008 82.3984 92.0008H88.5984Z" fill="#5A189A"/>
    <path d="M17.4001 92.0008H23.7001C23.5001 91.9008 23.4001 91.7008 23.2001 91.6008C15.5001 84.4008 10.5001 74.1008 9.70012 63.3008C9.60012 64.0008 9.60012 64.7008 9.60012 65.3008C9.40012 71.0008 10.2001 76.8008 12.2001 82.2008C13.5001 85.7008 15.3001 89.0008 17.4001 92.0008Z" fill="#5A189A"/>
    <path d="M13.1969 91.9992C8.99687 86.1992 6.09687 79.3992 4.79688 72.1992C5.29688 74.9992 5.99687 77.7992 7.09687 80.5992C8.59687 84.5992 10.6969 88.4992 13.1969 91.9992Z" fill="#5A189A"/>
    <path d="M66 16.5C66.3 16.6 66.5 16.6 66.8 16.7C66.5 16.6 66.2 16.5 66 16.5Z" fill="#5A189A"/>
    <path d="M92.3984 91.9992C94.9984 88.3992 97.0984 84.5992 98.5984 80.4992C99.5984 77.7992 100.398 74.9992 100.898 72.1992C99.4984 79.3992 96.4984 86.1992 92.3984 91.9992Z" fill="#5A189A"/>
    <path d="M17.4016 29.7992C12.9016 34.5992 9.40156 40.1992 7.10156 46.2992C5.80156 49.6992 5.00156 53.1992 4.50156 56.6992C4.50156 56.7992 4.50156 56.8992 4.50156 57.0992C4.40156 57.6992 4.40156 58.1992 4.30156 58.7992C4.30156 59.0992 4.20156 59.4992 4.20156 59.7992C4.20156 60.1992 4.10156 60.5992 4.10156 60.9992C4.10156 61.3992 4.10156 61.7992 4.10156 62.2992C4.10156 62.6992 4.10156 63.0992 4.10156 63.4992C4.10156 63.8992 4.10156 64.2992 4.10156 64.6992C4.10156 64.8992 4.10156 65.0992 4.10156 65.3992C4.10156 65.5992 4.10156 65.7992 4.10156 65.9992C4.10156 66.3992 4.10156 66.7992 4.20156 67.1992C4.20156 67.4992 4.30156 67.8992 4.30156 68.1992C4.40156 68.7992 4.40156 69.3992 4.50156 69.9992C4.50156 70.0992 4.50156 70.1992 4.50156 70.2992C5.60156 78.0992 8.70156 85.5992 13.3016 91.9992H15.1016C13.2016 89.0992 11.6016 85.9992 10.4016 82.7992C8.30156 77.1992 7.40156 71.1992 7.60156 65.1992C7.60156 64.4992 7.70156 63.7992 7.70156 63.0992C8.70156 52.2992 13.6016 42.0992 21.2016 34.6992C20.0016 32.9992 18.9016 31.0992 18.0016 29.1992C17.8016 29.3992 17.6016 29.5992 17.4016 29.7992Z" fill="#DF7EFF"/>
    <path d="M44.7 15.3008L50.4 22.0008C45.5 22.3008 40.7 23.3008 36.2 25.1008C30.9 27.2008 26 30.3008 21.8 34.3008C21.6 34.5008 21.5 34.6008 21.3 34.8008C20 33.0008 18.9 31.1008 18 29.2008C22.4 24.7008 27.7 21.1008 33.5 18.6008C35.3 17.8008 37.1 17.2008 39 16.6008C39.2 16.5008 39.4 16.5008 39.6 16.4008C40.1 16.3008 40.6 16.1008 41.1 16.0008C41.5 15.9008 42 15.8008 42.4 15.7008C42.7 15.6008 43 15.6008 43.3 15.5008C43.7 15.5008 44.2 15.4008 44.7 15.3008Z" fill="#EEB6FF"/>
    <path d="M90.5031 32.3992C89.3031 33.9992 88.0031 35.5992 86.5031 36.9992C85.6031 35.9992 84.7031 35.0992 83.8031 34.1992C79.6031 30.2992 74.7031 27.0992 69.4031 24.9992C64.9031 23.1992 60.1031 22.0992 55.2031 21.8992L60.9031 15.1992C61.4031 15.2992 62.0031 15.3992 62.5031 15.4992C62.7031 15.4992 62.9031 15.5992 63.2031 15.5992C63.7031 15.6992 64.2031 15.7992 64.7031 15.8992C65.1031 15.9992 65.6031 16.0992 66.0031 16.2992C66.3031 16.3992 66.5031 16.3992 66.8031 16.4992C67.4031 16.6992 68.0031 16.8992 68.6031 17.0992C68.7031 17.0992 68.7031 17.0992 68.8031 17.1992C69.9031 17.5992 71.1031 17.9992 72.2031 18.4992C78.3031 21.0992 83.8031 24.8992 88.3031 29.6992C89.0031 30.5992 89.8031 31.4992 90.5031 32.3992Z" fill="#EEB6FF"/>
    <path d="M101.602 62.3C101.602 61.9 101.602 61.5 101.602 61.1C101.602 60.7 101.602 60.3 101.502 59.9C101.502 59.6 101.402 59.2 101.402 58.9C101.302 58.3 101.302 57.7 101.202 57.1C101.202 57 101.202 56.9 101.202 56.8C100.702 53.3 99.9016 49.8 98.6016 46.4C96.7016 41.4 94.0016 36.7 90.6016 32.5C89.4016 34.1 88.1016 35.7 86.6016 37.1C93.1016 44.3 97.2016 53.8 97.9016 63.8C97.9016 64.3 98.0016 64.8 98.0016 65.3C98.2016 71.2 97.3016 77.2 95.2016 82.8C94.0016 86 92.4016 89.1 90.4016 92H92.3016C96.9016 85.6 100.002 78.1 101.102 70.1C101.102 70 101.102 69.9 101.102 69.7C101.202 69.1 101.202 68.6 101.302 68C101.302 67.7 101.402 67.3 101.402 67C101.402 66.6 101.502 66.2 101.502 65.8C101.502 65.6 101.502 65.4 101.502 65.2C101.502 65 101.502 64.8 101.502 64.5C101.502 64.1 101.502 63.7 101.502 63.3C101.602 63 101.602 62.6 101.602 62.3Z" fill="#DF7EFF"/>
    <path d="M54.9984 19.3984L65.6984 6.89844L61.4984 0.898438C61.0984 0.298437 60.3984 -0.101562 59.5984 -0.101562H45.9984C45.2984 -0.101562 44.5984 0.298437 44.0984 0.898438L39.8984 6.89844L50.4984 19.3984C51.7984 20.7984 53.8984 20.7984 54.9984 19.3984Z" fill="#DF7EFF"/>
    <path d="M52.9984 18.2977L59.6984 6.99766L57.6984 2.89766C57.2984 2.09766 56.4984 1.59766 55.5984 1.59766H49.9984C49.0984 1.59766 48.2984 2.09766 47.8984 2.89766L45.8984 6.99766L52.5984 18.2977C52.6984 18.4977 52.8984 18.4977 52.9984 18.2977Z" fill="#DEB3FF"/>
  </g>
  <path d="M31.0391 118L24.2812 108.684C24.0599 108.71 23.8255 108.723 23.5781 108.723C23.3438 108.723 23.1029 108.723 22.8555 108.723C22.7383 108.723 22.6211 108.723 22.5039 108.723C22.3867 108.71 22.2695 108.697 22.1523 108.684V114.484C22.1523 115.096 22.1849 115.598 22.25 115.988C22.3281 116.366 22.4714 116.665 22.6797 116.887C22.888 117.095 23.181 117.238 23.5586 117.316C23.9492 117.395 24.457 117.434 25.082 117.434V118H16.5273V117.434C17.1654 117.434 17.6732 117.395 18.0508 117.316C18.4284 117.238 18.7148 117.095 18.9102 116.887C19.1055 116.665 19.2292 116.366 19.2812 115.988C19.3333 115.598 19.3594 115.096 19.3594 114.484V101.555C19.3594 100.93 19.3333 100.428 19.2812 100.051C19.2292 99.6602 19.1055 99.3542 18.9102 99.1328C18.7148 98.9115 18.4284 98.7617 18.0508 98.6836C17.6732 98.6055 17.1654 98.5664 16.5273 98.5664V98.0391H24.0469C24.6328 98.0391 25.2318 98.0586 25.8438 98.0977C26.4688 98.1367 27.0742 98.2214 27.6602 98.3516C28.2591 98.4818 28.8255 98.6641 29.3594 98.8984C29.8932 99.1198 30.362 99.4258 30.7656 99.8164C31.1693 100.194 31.4883 100.656 31.7227 101.203C31.957 101.75 32.0742 102.401 32.0742 103.156C32.0742 103.911 31.9505 104.582 31.7031 105.168C31.4557 105.741 31.1107 106.236 30.668 106.652C30.2383 107.056 29.724 107.395 29.125 107.668C28.526 107.928 27.8815 108.13 27.1914 108.273L31.2734 114.035C31.638 114.543 31.9896 114.992 32.3281 115.383C32.6667 115.773 33.0312 116.112 33.4219 116.398C33.8125 116.685 34.2422 116.913 34.7109 117.082C35.1927 117.251 35.7526 117.368 36.3906 117.434V118H31.0391ZM28.793 103.391C28.793 102.753 28.6888 102.173 28.4805 101.652C28.2721 101.132 27.9727 100.689 27.582 100.324C27.2044 99.9466 26.7487 99.6602 26.2148 99.4648C25.694 99.2565 25.1146 99.1523 24.4766 99.1523C24.099 99.1523 23.7148 99.1784 23.3242 99.2305C22.9466 99.2826 22.556 99.3411 22.1523 99.4062V107.727H22.9922C23.7083 107.727 24.4115 107.655 25.1016 107.512C25.7917 107.368 26.4102 107.134 26.957 106.809C27.5039 106.47 27.9466 106.027 28.2852 105.48C28.6237 104.921 28.793 104.224 28.793 103.391ZM36.8789 118V117.434C37.5169 117.434 38.0247 117.395 38.4023 117.316C38.7799 117.225 39.0664 117.076 39.2617 116.867C39.457 116.646 39.5807 116.346 39.6328 115.969C39.6849 115.578 39.7109 115.083 39.7109 114.484V101.555C39.7109 100.943 39.6849 100.448 39.6328 100.07C39.5807 99.6797 39.457 99.3737 39.2617 99.1523C39.0664 98.931 38.7799 98.7812 38.4023 98.7031C38.0247 98.612 37.5169 98.5664 36.8789 98.5664V98.0391H45.4336V98.5664C44.8086 98.5664 44.3073 98.612 43.9297 98.7031C43.5521 98.7812 43.2591 98.931 43.0508 99.1523C42.8555 99.3737 42.7253 99.6797 42.6602 100.07C42.5951 100.448 42.5625 100.943 42.5625 101.555V114.484C42.5625 115.083 42.5885 115.578 42.6406 115.969C42.7057 116.346 42.8359 116.646 43.0312 116.867C43.2266 117.076 43.513 117.225 43.8906 117.316C44.2682 117.395 44.7826 117.434 45.4336 117.434V118H36.8789ZM67.5234 98.5664C66.8984 98.5664 66.3971 98.6055 66.0195 98.6836C65.6419 98.7617 65.349 98.9115 65.1406 99.1328C64.9453 99.3411 64.8151 99.6341 64.75 100.012C64.6979 100.389 64.6719 100.878 64.6719 101.477V118.312H64.1641L50.9609 102.238V114.523C50.9609 115.148 50.987 115.65 51.0391 116.027C51.1042 116.405 51.2344 116.698 51.4297 116.906C51.625 117.115 51.9115 117.258 52.2891 117.336C52.6667 117.401 53.168 117.434 53.793 117.434V118H46.8398V117.434C47.4648 117.434 47.9596 117.395 48.3242 117.316C48.7018 117.238 48.9883 117.095 49.1836 116.887C49.3789 116.665 49.5091 116.366 49.5742 115.988C49.6393 115.611 49.6719 115.122 49.6719 114.523V100.637C49.4245 100.298 49.1901 100.005 48.9688 99.7578C48.7604 99.4974 48.5326 99.2826 48.2852 99.1133C48.0508 98.931 47.7773 98.7943 47.4648 98.7031C47.1523 98.612 46.7682 98.5664 46.3125 98.5664V98.0391H51.1953L63.4023 113V101.477C63.4023 100.878 63.3698 100.389 63.3047 100.012C63.2396 99.6341 63.1029 99.3411 62.8945 99.1328C62.6992 98.9115 62.4128 98.7617 62.0352 98.6836C61.6706 98.6055 61.1758 98.5664 60.5508 98.5664V98.0391H67.5234V98.5664ZM89.2812 107.648C88.7344 107.648 88.3112 107.714 88.0117 107.844C87.7122 107.974 87.4909 108.163 87.3477 108.41C87.2044 108.658 87.1133 108.964 87.0742 109.328C87.0482 109.693 87.0352 110.103 87.0352 110.559V116.672C85.9674 117.297 84.8346 117.753 83.6367 118.039C82.4518 118.339 81.2344 118.488 79.9844 118.488C78.4609 118.488 77.0286 118.26 75.6875 117.805C74.3464 117.349 73.1745 116.685 72.1719 115.812C71.1823 114.94 70.3945 113.879 69.8086 112.629C69.2357 111.366 68.9492 109.927 68.9492 108.312C68.9492 106.828 69.2161 105.435 69.75 104.133C70.2969 102.831 71.0456 101.698 71.9961 100.734C72.9466 99.7578 74.0664 98.9961 75.3555 98.4492C76.6576 97.8893 78.0573 97.6094 79.5547 97.6094C80.2057 97.6094 80.8438 97.6615 81.4688 97.7656C82.1068 97.8568 82.7383 98.013 83.3633 98.2344C83.3893 98.2344 83.4935 98.2669 83.6758 98.332C83.8581 98.3971 84.0534 98.4688 84.2617 98.5469C84.4831 98.612 84.6849 98.6771 84.8672 98.7422C85.0495 98.8073 85.1471 98.8398 85.1602 98.8398C85.3034 98.8398 85.4206 98.7943 85.5117 98.7031C85.6029 98.599 85.6745 98.4818 85.7266 98.3516C85.7917 98.2214 85.8372 98.0911 85.8633 97.9609C85.8893 97.8177 85.9089 97.7005 85.9219 97.6094H86.4297L86.957 103.879H86.4297C86.1693 103.072 85.8438 102.349 85.4531 101.711C85.0625 101.06 84.6003 100.507 84.0664 100.051C83.5326 99.582 82.9141 99.224 82.2109 98.9766C81.5078 98.7292 80.7135 98.6055 79.8281 98.6055C78.526 98.6055 77.4062 98.8594 76.4688 99.3672C75.5312 99.875 74.7565 100.552 74.1445 101.398C73.5326 102.245 73.0768 103.215 72.7773 104.309C72.4909 105.402 72.3477 106.529 72.3477 107.688C72.3477 108.846 72.4974 110.005 72.7969 111.164C73.1094 112.323 73.5781 113.371 74.2031 114.309C74.8411 115.233 75.6419 115.988 76.6055 116.574C77.569 117.147 78.7148 117.434 80.043 117.434C80.7591 117.434 81.4622 117.349 82.1523 117.18C82.8555 116.997 83.5195 116.724 84.1445 116.359V110.559C84.1445 110.012 84.1185 109.556 84.0664 109.191C84.0143 108.827 83.8971 108.534 83.7148 108.312C83.5326 108.091 83.2721 107.928 82.9336 107.824C82.5951 107.72 82.1328 107.661 81.5469 107.648V107.121H89.2812V107.648Z" fill="#68119E"/>
  <path d="M4.26296 133H0.171768V132.849C0.33833 132.849 0.470192 132.839 0.567354 132.818C0.667985 132.797 0.744326 132.759 0.796377 132.703C0.848428 132.644 0.883128 132.565 0.900479 132.464C0.917829 132.36 0.926504 132.226 0.926504 132.063V128.597C0.926504 128.43 0.919564 128.296 0.905684 128.196C0.891803 128.095 0.858838 128.017 0.806787 127.961C0.754736 127.906 0.678395 127.87 0.577764 127.852C0.477132 127.831 0.3418 127.821 0.171768 127.821V127.68H4.26296L4.32542 128.841H4.17968C4.13457 128.671 4.09119 128.531 4.04955 128.42C4.01138 128.305 3.95759 128.215 3.88819 128.149C3.82226 128.083 3.73031 128.036 3.61232 128.008C3.49781 127.981 3.34166 127.967 3.14387 127.967H1.67604V130.07H2.84718C3.01027 130.07 3.1404 130.059 3.23756 130.038C3.33819 130.014 3.418 129.974 3.47699 129.919C3.53945 129.86 3.58456 129.782 3.61232 129.684C3.64355 129.584 3.66958 129.455 3.6904 129.299H3.83614V131.157H3.6904C3.66958 131.001 3.64355 130.873 3.61232 130.772C3.58456 130.672 3.54119 130.592 3.4822 130.533C3.42321 130.47 3.3434 130.427 3.24276 130.403C3.1456 130.378 3.01374 130.366 2.84718 130.366H1.67604V132.115C1.67604 132.212 1.67777 132.299 1.68124 132.375C1.68818 132.448 1.70553 132.511 1.73329 132.563C1.76105 132.611 1.80443 132.65 1.86342 132.677C1.92588 132.702 2.01263 132.714 2.12367 132.714H3.01895C3.25144 132.714 3.44229 132.695 3.5915 132.656C3.74072 132.618 3.86911 132.558 3.97668 132.474C4.08772 132.391 4.18662 132.283 4.27337 132.152C4.36012 132.016 4.45728 131.855 4.56485 131.668H4.73142L4.26296 133ZM9.61378 133V132.849C9.78034 132.849 9.9122 132.839 10.0094 132.818C10.11 132.797 10.1863 132.759 10.2384 132.703C10.2939 132.644 10.3303 132.565 10.3477 132.464C10.365 132.363 10.3737 132.233 10.3737 132.073V128.524L8.31251 133H8.18759L6.13158 128.524V132.073C6.13158 132.237 6.14026 132.368 6.15761 132.469C6.17496 132.57 6.20966 132.65 6.26171 132.709C6.31376 132.764 6.38837 132.802 6.48553 132.823C6.58616 132.84 6.71976 132.849 6.88632 132.849V133H5.04372V132.849C5.21028 132.849 5.34215 132.839 5.43931 132.818C5.53647 132.797 5.61107 132.759 5.66312 132.703C5.71518 132.644 5.74814 132.565 5.76202 132.464C5.77937 132.363 5.78805 132.233 5.78805 132.073V128.597C5.78805 128.454 5.7759 128.335 5.75161 128.237C5.73079 128.137 5.69262 128.057 5.6371 127.998C5.58158 127.935 5.50524 127.89 5.40808 127.863C5.31438 127.835 5.19293 127.821 5.04372 127.821V127.68H6.54278L8.47387 131.839L10.3737 127.68H11.8832V127.821C11.7166 127.821 11.583 127.831 11.4824 127.852C11.3818 127.873 11.3054 127.913 11.2534 127.972C11.2013 128.027 11.1666 128.105 11.1493 128.206C11.1354 128.307 11.1285 128.437 11.1285 128.597V132.073C11.1285 132.237 11.1371 132.368 11.1545 132.469C11.1718 132.57 11.2065 132.65 11.2586 132.709C11.3106 132.764 11.3852 132.802 11.4824 132.823C11.583 132.84 11.7166 132.849 11.8832 132.849V133H9.61378ZM16.245 129.153C16.245 129.441 16.1947 129.681 16.0941 129.872C15.9969 130.059 15.8633 130.208 15.6933 130.319C15.5233 130.43 15.3237 130.509 15.0947 130.554C14.8692 130.599 14.6297 130.621 14.3764 130.621C14.2654 130.621 14.1543 130.62 14.0433 130.616C13.9357 130.613 13.8195 130.6 13.6946 130.58V132.063C13.6946 132.226 13.7032 132.36 13.7206 132.464C13.7414 132.565 13.7778 132.644 13.8299 132.703C13.8854 132.759 13.9635 132.797 14.0641 132.818C14.1648 132.839 14.2983 132.849 14.4649 132.849V133H12.1955V132.849C12.3621 132.849 12.4939 132.839 12.5911 132.818C12.6917 132.797 12.7681 132.759 12.8201 132.703C12.8722 132.644 12.9051 132.565 12.919 132.464C12.9329 132.36 12.9398 132.226 12.9398 132.063V128.617C12.9398 128.451 12.9329 128.317 12.919 128.217C12.9051 128.112 12.8722 128.031 12.8201 127.972C12.7715 127.913 12.6969 127.873 12.5963 127.852C12.4991 127.831 12.3655 127.821 12.1955 127.821V127.68H14.1318C14.3712 127.68 14.6159 127.701 14.8657 127.743C15.119 127.785 15.3463 127.861 15.5476 127.972C15.7523 128.079 15.9189 128.229 16.0473 128.42C16.1791 128.61 16.245 128.855 16.245 129.153ZM15.3498 129.226C15.3498 129.056 15.3237 128.897 15.2717 128.747C15.2231 128.595 15.1502 128.463 15.0531 128.352C14.9594 128.241 14.8414 128.152 14.6991 128.086C14.5603 128.02 14.4007 127.988 14.2203 127.988C14.1335 127.988 14.045 127.996 13.9548 128.014C13.8681 128.031 13.7813 128.048 13.6946 128.066V130.314C13.8021 130.332 13.9097 130.345 14.0173 130.356C14.1248 130.363 14.2342 130.366 14.3452 130.366C14.5013 130.366 14.6401 130.335 14.7616 130.273C14.8865 130.207 14.9924 130.122 15.0791 130.017C15.1659 129.91 15.2318 129.788 15.2769 129.653C15.3255 129.514 15.3498 129.372 15.3498 129.226ZM19.8782 133V132.849C20.0448 132.849 20.1784 132.839 20.279 132.818C20.3831 132.794 20.4612 132.754 20.5132 132.698C20.5687 132.639 20.6052 132.559 20.6225 132.459C20.6399 132.355 20.6485 132.223 20.6485 132.063V130.429H18.1605V132.063C18.1605 132.226 18.1692 132.36 18.1865 132.464C18.2039 132.565 18.2403 132.644 18.2958 132.703C18.3514 132.759 18.4294 132.797 18.5301 132.818C18.6342 132.839 18.7712 132.849 18.9413 132.849V133H16.6615V132.849C16.8315 132.849 16.9668 132.839 17.0675 132.818C17.1681 132.797 17.2444 132.759 17.2965 132.703C17.3485 132.644 17.3815 132.565 17.3954 132.464C17.4093 132.36 17.4162 132.226 17.4162 132.063V128.617C17.4162 128.454 17.4075 128.322 17.3902 128.222C17.3763 128.118 17.3433 128.036 17.2913 127.977C17.2392 127.918 17.1629 127.878 17.0622 127.857C16.9616 127.833 16.828 127.821 16.6615 127.821V127.68H18.9413V127.821C18.7747 127.821 18.6411 127.833 18.5405 127.857C18.4399 127.878 18.36 127.918 18.3011 127.977C18.2455 128.036 18.2074 128.118 18.1865 128.222C18.1692 128.322 18.1605 128.454 18.1605 128.617V130.142H20.6485V128.617C20.6485 128.454 20.6399 128.322 20.6225 128.222C20.6052 128.118 20.5687 128.036 20.5132 127.977C20.4612 127.918 20.3831 127.878 20.279 127.857C20.1784 127.833 20.0448 127.821 19.8782 127.821V127.68H22.158V127.821C22.0019 127.821 21.8735 127.831 21.7728 127.852C21.6757 127.87 21.5993 127.906 21.5438 127.961C21.4918 128.014 21.4553 128.088 21.4345 128.185C21.4137 128.279 21.4033 128.402 21.4033 128.555V132.115C21.4033 132.275 21.4137 132.403 21.4345 132.5C21.4553 132.597 21.4918 132.672 21.5438 132.724C21.5993 132.776 21.6757 132.811 21.7728 132.828C21.8735 132.842 22.0019 132.849 22.158 132.849V133H19.8782ZM25.9317 133V132.849C25.9907 132.849 26.0514 132.846 26.1139 132.839C26.1763 132.828 26.2336 132.811 26.2856 132.787C26.3377 132.762 26.3811 132.729 26.4158 132.688C26.4505 132.643 26.4678 132.584 26.4678 132.511C26.4678 132.441 26.447 132.344 26.4054 132.219C26.3637 132.094 26.3169 131.966 26.2648 131.834C26.2128 131.702 26.1607 131.579 26.1087 131.465C26.0566 131.35 26.0202 131.268 25.9994 131.22H23.9382C23.9243 131.248 23.9017 131.294 23.8705 131.36C23.8427 131.423 23.8098 131.496 23.7716 131.579C23.7334 131.659 23.6952 131.744 23.6571 131.834C23.6189 131.924 23.5825 132.013 23.5478 132.1C23.5165 132.186 23.4905 132.266 23.4697 132.339C23.4489 132.412 23.4385 132.469 23.4385 132.511C23.4385 132.58 23.461 132.637 23.5061 132.682C23.5512 132.724 23.6068 132.757 23.6727 132.781C23.7386 132.806 23.8063 132.823 23.8757 132.833C23.9451 132.84 24.0058 132.846 24.0579 132.849V133H22.3818V132.849C22.5068 132.846 22.6143 132.816 22.7045 132.761C22.7948 132.705 22.8728 132.634 22.9388 132.547C23.0082 132.46 23.0672 132.365 23.1158 132.261C23.1643 132.153 23.2112 132.047 23.2563 131.943L25.1353 127.566H25.2707L27.1185 131.975C27.1705 132.096 27.2191 132.209 27.2642 132.313C27.3128 132.414 27.37 132.504 27.436 132.584C27.5019 132.66 27.5817 132.722 27.6754 132.771C27.7691 132.816 27.8888 132.842 28.0345 132.849V133H25.9317ZM24.9844 128.768L24.0579 130.934H25.8901L24.9844 128.768ZM32.1362 131.636C32.1362 131.869 32.0893 132.077 31.9956 132.261C31.9019 132.445 31.777 132.601 31.6208 132.729C31.4682 132.858 31.2912 132.957 31.0899 133.026C30.8887 133.095 30.6805 133.13 30.4653 133.13C30.323 133.13 30.1808 133.113 30.0385 133.078C29.8962 133.047 29.7609 133.012 29.6325 132.974C29.5076 132.936 29.3931 132.901 29.289 132.87C29.1849 132.835 29.0999 132.818 29.0339 132.818C28.9923 132.818 28.9558 132.828 28.9246 132.849C28.8969 132.866 28.8726 132.891 28.8517 132.922C28.8344 132.953 28.8205 132.986 28.8101 133.021C28.8032 133.059 28.7962 133.095 28.7893 133.13H28.6487V131.293H28.7893C28.817 131.518 28.8708 131.725 28.9506 131.912C29.0305 132.1 29.1363 132.261 29.2682 132.396C29.4 132.528 29.5579 132.632 29.7418 132.709C29.9292 132.781 30.1409 132.818 30.3768 132.818C30.5052 132.818 30.6319 132.8 30.7568 132.766C30.8852 132.728 30.998 132.672 31.0951 132.599C31.1958 132.526 31.2773 132.436 31.3398 132.329C31.4022 132.218 31.4335 132.089 31.4335 131.943C31.4335 131.791 31.3918 131.654 31.3085 131.532C31.2287 131.407 31.1229 131.293 30.991 131.189C30.8592 131.081 30.7082 130.98 30.5382 130.887C30.3682 130.79 30.1947 130.692 30.0177 130.595C29.8442 130.498 29.6724 130.396 29.5024 130.288C29.3324 130.181 29.1814 130.063 29.0495 129.934C28.9177 129.802 28.8101 129.658 28.7268 129.502C28.647 129.343 28.6071 129.162 28.6071 128.961C28.6071 128.742 28.6487 128.546 28.732 128.373C28.8188 128.199 28.9333 128.053 29.0756 127.935C29.2178 127.814 29.3809 127.722 29.5648 127.66C29.7522 127.597 29.9483 127.566 30.153 127.566C30.2745 127.566 30.3942 127.582 30.5122 127.613C30.6336 127.644 30.7481 127.679 30.8557 127.717C30.9667 127.752 31.0674 127.785 31.1576 127.816C31.2478 127.847 31.3224 127.863 31.3814 127.863C31.4231 127.863 31.4578 127.852 31.4855 127.831C31.5133 127.811 31.5376 127.786 31.5584 127.758C31.5792 127.727 31.5948 127.694 31.6052 127.66C31.6191 127.625 31.6295 127.594 31.6365 127.566H31.7874V129.398H31.6365C31.6191 129.19 31.574 128.994 31.5011 128.81C31.4283 128.623 31.3294 128.461 31.2044 128.326C31.083 128.187 30.9355 128.078 30.762 127.998C30.5885 127.915 30.389 127.873 30.1634 127.873C30.0454 127.873 29.9309 127.892 29.8199 127.93C29.7089 127.968 29.6082 128.024 29.518 128.097C29.4312 128.166 29.3601 128.251 29.3046 128.352C29.2525 128.449 29.2265 128.56 29.2265 128.685C29.2265 128.831 29.2682 128.963 29.3514 129.081C29.4347 129.199 29.544 129.308 29.6794 129.408C29.8182 129.509 29.9743 129.606 30.1478 129.7C30.3213 129.79 30.4983 129.884 30.6787 129.981C30.8626 130.075 31.0414 130.175 31.2149 130.283C31.3884 130.391 31.5428 130.51 31.6781 130.642C31.8169 130.774 31.9279 130.921 32.0112 131.085C32.0945 131.244 32.1362 131.428 32.1362 131.636ZM32.766 133V132.849C32.936 132.849 33.0713 132.839 33.172 132.818C33.2726 132.794 33.3489 132.754 33.401 132.698C33.453 132.639 33.486 132.559 33.4999 132.459C33.5138 132.355 33.5207 132.223 33.5207 132.063V128.617C33.5207 128.454 33.5138 128.322 33.4999 128.222C33.486 128.118 33.453 128.036 33.401 127.977C33.3489 127.918 33.2726 127.878 33.172 127.857C33.0713 127.833 32.936 127.821 32.766 127.821V127.68H35.0458V127.821C34.8792 127.821 34.7456 127.833 34.645 127.857C34.5444 127.878 34.4663 127.918 34.4108 127.977C34.3587 128.036 34.324 128.118 34.3067 128.222C34.2893 128.322 34.2806 128.454 34.2806 128.617V132.063C34.2806 132.223 34.2876 132.355 34.3015 132.459C34.3188 132.559 34.3535 132.639 34.4056 132.698C34.4576 132.754 34.534 132.794 34.6346 132.818C34.7352 132.839 34.8723 132.849 35.0458 132.849V133H32.766ZM39.6731 133H35.3425V132.849L38.7466 127.988H37.0497C36.852 127.988 36.6889 128.007 36.5605 128.045C36.4355 128.079 36.3332 128.137 36.2534 128.217C36.177 128.296 36.1163 128.402 36.0712 128.534C36.0296 128.666 35.9931 128.826 35.9619 129.013H35.8161L35.9307 127.68H39.8657L36.3679 132.682H38.5436C38.7483 132.682 38.9184 132.658 39.0537 132.61C39.189 132.558 39.3018 132.485 39.392 132.391C39.4857 132.294 39.5638 132.178 39.6263 132.042C39.6887 131.903 39.7477 131.747 39.8032 131.574L39.9177 131.595L39.6731 133ZM44.4045 133H40.3133V132.849C40.4799 132.849 40.6118 132.839 40.7089 132.818C40.8095 132.797 40.8859 132.759 40.9379 132.703C40.99 132.644 41.0247 132.565 41.042 132.464C41.0594 132.36 41.0681 132.226 41.0681 132.063V128.597C41.0681 128.43 41.0611 128.296 41.0472 128.196C41.0334 128.095 41.0004 128.017 40.9484 127.961C40.8963 127.906 40.82 127.87 40.7193 127.852C40.6187 127.831 40.4834 127.821 40.3133 127.821V127.68H44.4045L44.467 128.841H44.3212C44.2761 128.671 44.2328 128.531 44.1911 128.42C44.1529 128.305 44.0992 128.215 44.0298 128.149C43.9638 128.083 43.8719 128.036 43.7539 128.008C43.6394 127.981 43.4832 127.967 43.2854 127.967H41.8176V130.07H42.9887C43.1518 130.07 43.282 130.059 43.3791 130.038C43.4798 130.014 43.5596 129.974 43.6186 129.919C43.681 129.86 43.7261 129.782 43.7539 129.684C43.7851 129.584 43.8111 129.455 43.832 129.299H43.9777V131.157H43.832C43.8111 131.001 43.7851 130.873 43.7539 130.772C43.7261 130.672 43.6828 130.592 43.6238 130.533C43.5648 130.47 43.485 130.427 43.3843 130.403C43.2872 130.378 43.1553 130.366 42.9887 130.366H41.8176V132.115C41.8176 132.212 41.8193 132.299 41.8228 132.375C41.8297 132.448 41.8471 132.511 41.8749 132.563C41.9026 132.611 41.946 132.65 42.005 132.677C42.0674 132.702 42.1542 132.714 42.2652 132.714H43.1605C43.393 132.714 43.5839 132.695 43.7331 132.656C43.8823 132.618 44.0107 132.558 44.1182 132.474C44.2293 132.391 44.3282 132.283 44.4149 132.152C44.5017 132.016 44.5988 131.855 44.7064 131.668H44.873L44.4045 133ZM53.1647 127.821C53.0085 127.821 52.8749 127.847 52.7639 127.899C52.6528 127.951 52.5522 128.019 52.462 128.102C52.3752 128.185 52.2954 128.282 52.2226 128.394C52.1531 128.501 52.082 128.612 52.0091 128.727L50.7235 130.741V132.073C50.7235 132.237 50.7322 132.368 50.7495 132.469C50.7669 132.57 50.8016 132.65 50.8536 132.709C50.9057 132.764 50.9803 132.802 51.0774 132.823C51.1781 132.84 51.3117 132.849 51.4782 132.849V133H49.2192V132.849C49.3858 132.849 49.5176 132.839 49.6148 132.818C49.712 132.797 49.7848 132.759 49.8334 132.703C49.8855 132.644 49.9184 132.565 49.9323 132.464C49.9462 132.363 49.9531 132.233 49.9531 132.073V130.814L48.5061 128.586C48.4506 128.499 48.3899 128.411 48.3239 128.321C48.2615 128.23 48.1921 128.149 48.1157 128.076C48.0394 128 47.9544 127.939 47.8607 127.894C47.767 127.845 47.6612 127.821 47.5432 127.821V127.68H49.8178V127.821C49.7623 127.821 49.6981 127.824 49.6252 127.831C49.5558 127.838 49.4899 127.854 49.4274 127.878C49.365 127.899 49.3129 127.934 49.2713 127.982C49.2296 128.027 49.2088 128.09 49.2088 128.17C49.2088 128.218 49.24 128.307 49.3025 128.435C49.3684 128.564 49.45 128.709 49.5471 128.872C49.6478 129.032 49.7553 129.2 49.8699 129.377C49.9844 129.551 50.0902 129.712 50.1874 129.861C50.288 130.007 50.373 130.13 50.4424 130.231C50.5118 130.332 50.5483 130.387 50.5517 130.397L51.6084 128.758C51.6292 128.723 51.6535 128.683 51.6812 128.638C51.709 128.59 51.7333 128.541 51.7541 128.492C51.7784 128.44 51.7992 128.39 51.8166 128.341C51.8339 128.289 51.8426 128.243 51.8426 128.201C51.8426 128.128 51.8252 128.067 51.7905 128.019C51.7558 127.97 51.7125 127.932 51.6604 127.904C51.6084 127.873 51.5511 127.852 51.4886 127.842C51.4262 127.828 51.3654 127.821 51.3065 127.821V127.68H53.1647V127.821ZM58.7601 130.314C58.7601 130.692 58.6977 131.052 58.5727 131.392C58.4478 131.732 58.2708 132.032 58.0418 132.292C57.8163 132.549 57.5421 132.754 57.2194 132.906C56.9002 133.056 56.5428 133.13 56.1472 133.13C55.7516 133.13 55.3924 133.056 55.0697 132.906C54.7505 132.757 54.4763 132.556 54.2473 132.303C54.0218 132.046 53.8483 131.747 53.7268 131.407C53.6054 131.067 53.5446 130.706 53.5446 130.325C53.5446 129.939 53.6088 129.58 53.7372 129.247C53.8691 128.911 54.053 128.619 54.289 128.373C54.5249 128.123 54.806 127.927 55.1322 127.785C55.4584 127.639 55.8175 127.566 56.2096 127.566C56.5948 127.566 56.9436 127.641 57.2559 127.79C57.5682 127.935 57.8354 128.135 58.0574 128.388C58.283 128.638 58.4565 128.93 58.5779 129.263C58.6994 129.596 58.7601 129.946 58.7601 130.314ZM57.8649 130.366C57.8649 130.172 57.8544 129.974 57.8336 129.773C57.8163 129.572 57.7833 129.377 57.7347 129.19C57.6861 129.003 57.6202 128.827 57.5369 128.664C57.4537 128.501 57.3478 128.359 57.2194 128.237C57.091 128.116 56.9366 128.02 56.7562 127.951C56.5792 127.878 56.3693 127.842 56.1264 127.842C55.9043 127.842 55.7082 127.878 55.5382 127.951C55.3716 128.02 55.2259 128.116 55.101 128.237C54.976 128.359 54.8719 128.501 54.7887 128.664C54.7054 128.827 54.6377 129.001 54.5857 129.185C54.5371 129.365 54.5024 129.553 54.4816 129.747C54.4607 129.938 54.4503 130.123 54.4503 130.304C54.4503 130.481 54.4607 130.666 54.4816 130.861C54.5024 131.055 54.5388 131.246 54.5909 131.433C54.6429 131.621 54.7106 131.799 54.7939 131.969C54.8771 132.139 54.9812 132.289 55.1062 132.417C55.2311 132.545 55.3786 132.648 55.5486 132.724C55.7186 132.8 55.9147 132.839 56.1368 132.839C56.3693 132.839 56.5723 132.804 56.7458 132.735C56.9227 132.665 57.0754 132.571 57.2038 132.453C57.3322 132.332 57.438 132.191 57.5213 132.032C57.6081 131.869 57.6757 131.697 57.7243 131.517C57.7764 131.333 57.8128 131.144 57.8336 130.949C57.8544 130.751 57.8649 130.557 57.8649 130.366ZM64.7928 127.821C64.6332 127.821 64.5031 127.835 64.4024 127.863C64.3018 127.89 64.2237 127.937 64.1682 128.003C64.1127 128.069 64.0745 128.156 64.0537 128.263C64.0329 128.367 64.0225 128.496 64.0225 128.649V130.814C64.0225 131.178 63.9878 131.504 63.9184 131.792C63.8524 132.077 63.7397 132.318 63.58 132.516C63.4239 132.714 63.2139 132.866 62.9502 132.974C62.6865 133.078 62.3586 133.13 61.9665 133.13C61.5327 133.13 61.1788 133.076 60.9046 132.969C60.634 132.861 60.4223 132.705 60.2696 132.5C60.1169 132.292 60.0128 132.039 59.9573 131.74C59.9052 131.438 59.8792 131.095 59.8792 130.71V128.617C59.8792 128.472 59.8723 128.348 59.8584 128.248C59.8445 128.147 59.8133 128.066 59.7647 128.003C59.7196 127.937 59.6502 127.89 59.5565 127.863C59.4663 127.835 59.3431 127.821 59.1869 127.821V127.68H61.3262V127.821C61.1735 127.821 61.0521 127.835 60.9619 127.863C60.8717 127.89 60.8023 127.937 60.7537 128.003C60.7051 128.066 60.6721 128.147 60.6548 128.248C60.6409 128.348 60.634 128.472 60.634 128.617V130.944C60.634 131.19 60.6496 131.426 60.6808 131.652C60.7155 131.874 60.7814 132.07 60.8786 132.24C60.9792 132.407 61.1198 132.54 61.3002 132.641C61.4841 132.738 61.7236 132.787 62.0185 132.787C62.2579 132.787 62.487 132.748 62.7056 132.672C62.9242 132.596 63.122 132.474 63.299 132.308C63.3857 132.228 63.4534 132.124 63.502 131.995C63.5505 131.864 63.587 131.726 63.6113 131.584C63.6355 131.438 63.6494 131.294 63.6529 131.152C63.6598 131.006 63.6633 130.88 63.6633 130.772V128.617C63.6633 128.451 63.6546 128.317 63.6373 128.217C63.6234 128.112 63.5887 128.031 63.5332 127.972C63.4811 127.913 63.4048 127.873 63.3042 127.852C63.2035 127.831 63.0699 127.821 62.9034 127.821V127.68H64.7928V127.821ZM68.8736 133L67.0726 130.517C67.0136 130.524 66.9512 130.528 66.8853 130.528C66.8228 130.528 66.7586 130.528 66.6927 130.528C66.6614 130.528 66.6302 130.528 66.599 130.528C66.5677 130.524 66.5365 130.521 66.5053 130.517V132.063C66.5053 132.226 66.514 132.36 66.5313 132.464C66.5521 132.565 66.5903 132.644 66.6458 132.703C66.7013 132.759 66.7794 132.797 66.88 132.818C66.9842 132.839 67.1195 132.849 67.286 132.849V133H65.0062V132.849C65.1763 132.849 65.3116 132.839 65.4122 132.818C65.5128 132.797 65.5892 132.759 65.6412 132.703C65.6933 132.644 65.7263 132.565 65.7401 132.464C65.754 132.36 65.761 132.226 65.761 132.063V128.617C65.761 128.451 65.754 128.317 65.7401 128.217C65.7263 128.112 65.6933 128.031 65.6412 127.972C65.5892 127.913 65.5128 127.873 65.4122 127.852C65.3116 127.831 65.1763 127.821 65.0062 127.821V127.68H67.0102C67.1663 127.68 67.326 127.686 67.489 127.696C67.6556 127.706 67.817 127.729 67.9731 127.764C68.1327 127.798 68.2837 127.847 68.426 127.909C68.5682 127.968 68.6932 128.05 68.8007 128.154C68.9083 128.255 68.9933 128.378 69.0558 128.524C69.1182 128.669 69.1495 128.843 69.1495 129.044C69.1495 129.245 69.1165 129.424 69.0506 129.58C68.9846 129.733 68.8927 129.865 68.7747 129.976C68.6602 130.083 68.5231 130.174 68.3635 130.247C68.2039 130.316 68.0321 130.37 67.8482 130.408L68.9361 131.943C69.0332 132.079 69.1269 132.198 69.2171 132.303C69.3074 132.407 69.4045 132.497 69.5086 132.573C69.6127 132.65 69.7272 132.71 69.8521 132.755C69.9805 132.8 70.1298 132.832 70.2998 132.849V133H68.8736ZM68.275 129.107C68.275 128.937 68.2473 128.782 68.1917 128.643C68.1362 128.505 68.0564 128.387 67.9523 128.289C67.8517 128.189 67.7302 128.112 67.5879 128.06C67.4491 128.005 67.2947 127.977 67.1247 127.977C67.0241 127.977 66.9217 127.984 66.8176 127.998C66.717 128.012 66.6129 128.027 66.5053 128.045V130.262H66.7291C66.92 130.262 67.1073 130.243 67.2913 130.205C67.4752 130.167 67.64 130.104 67.7857 130.017C67.9315 129.927 68.0495 129.809 68.1397 129.664C68.2299 129.514 68.275 129.329 68.275 129.107ZM77.5661 131.548C77.5661 131.756 77.5331 131.938 77.4672 132.094C77.4012 132.247 77.311 132.377 77.1965 132.485C77.082 132.592 76.9484 132.681 76.7957 132.75C76.6465 132.816 76.4869 132.868 76.3169 132.906C76.1503 132.941 75.9785 132.965 75.8016 132.979C75.6281 132.993 75.4598 133 75.2967 133H72.793V132.849C72.9596 132.849 73.0914 132.839 73.1886 132.818C73.2892 132.794 73.3656 132.754 73.4176 132.698C73.4697 132.639 73.5044 132.559 73.5217 132.459C73.5391 132.355 73.5478 132.223 73.5478 132.063V128.617C73.5478 128.451 73.5408 128.317 73.5269 128.217C73.5131 128.112 73.4801 128.031 73.428 127.972C73.376 127.913 73.2996 127.873 73.199 127.852C73.0984 127.831 72.9631 127.821 72.793 127.821V127.68H75.0833C75.2463 127.68 75.4146 127.687 75.5881 127.701C75.7616 127.715 75.9317 127.741 76.0982 127.779C76.2648 127.814 76.4227 127.864 76.5719 127.93C76.7211 127.996 76.8512 128.083 76.9623 128.191C77.0768 128.295 77.167 128.423 77.2329 128.576C77.2989 128.725 77.3318 128.902 77.3318 129.107C77.3318 129.256 77.3058 129.393 77.2538 129.518C77.2052 129.643 77.1375 129.756 77.0508 129.856C76.964 129.953 76.8617 130.038 76.7437 130.111C76.6257 130.184 76.499 130.241 76.3637 130.283C76.5407 130.314 76.702 130.363 76.8478 130.429C76.9935 130.491 77.1202 130.574 77.2277 130.679C77.3353 130.779 77.4186 130.902 77.4776 131.048C77.5366 131.19 77.5661 131.357 77.5661 131.548ZM76.499 129.065C76.499 128.857 76.4539 128.682 76.3637 128.539C76.277 128.397 76.1624 128.282 76.0202 128.196C75.8814 128.105 75.7235 128.041 75.5465 128.003C75.373 127.965 75.1978 127.946 75.0208 127.946C74.8993 127.946 74.7779 127.953 74.6564 127.967C74.5385 127.977 74.4205 127.996 74.3025 128.024V130.07C74.4274 130.097 74.5523 130.113 74.6773 130.116C74.8056 130.12 74.9306 130.122 75.052 130.122C75.2359 130.122 75.4146 130.108 75.5881 130.08C75.7616 130.049 75.9161 129.993 76.0514 129.913C76.1867 129.834 76.2943 129.726 76.3741 129.591C76.4574 129.452 76.499 129.277 76.499 129.065ZM76.6604 131.605C76.6604 131.376 76.6101 131.185 76.5094 131.032C76.4088 130.876 76.2787 130.751 76.1191 130.658C75.9629 130.564 75.7859 130.498 75.5881 130.46C75.3904 130.418 75.1943 130.397 75 130.397C74.8889 130.397 74.7762 130.399 74.6616 130.403C74.5471 130.403 74.4274 130.411 74.3025 130.429V132.615C74.4552 132.65 74.6061 132.677 74.7553 132.698C74.9045 132.715 75.0572 132.724 75.2134 132.724C75.3904 132.724 75.5639 132.705 75.7339 132.667C75.9074 132.625 76.0618 132.561 76.1971 132.474C76.3359 132.384 76.447 132.268 76.5303 132.126C76.617 131.983 76.6604 131.81 76.6604 131.605ZM82.1413 133H78.0501V132.849C78.2167 132.849 78.3486 132.839 78.4457 132.818C78.5464 132.797 78.6227 132.759 78.6748 132.703C78.7268 132.644 78.7615 132.565 78.7789 132.464C78.7962 132.36 78.8049 132.226 78.8049 132.063V128.597C78.8049 128.43 78.7979 128.296 78.7841 128.196C78.7702 128.095 78.7372 128.017 78.6852 127.961C78.6331 127.906 78.5568 127.87 78.4561 127.852C78.3555 127.831 78.2202 127.821 78.0501 127.821V127.68H82.1413L82.2038 128.841H82.0581C82.0129 128.671 81.9696 128.531 81.9279 128.42C81.8898 128.305 81.836 128.215 81.7666 128.149C81.7006 128.083 81.6087 128.036 81.4907 128.008C81.3762 127.981 81.22 127.967 81.0222 127.967H79.5544V130.07H80.7256C80.8886 130.07 81.0188 130.059 81.1159 130.038C81.2166 130.014 81.2964 129.974 81.3554 129.919C81.4178 129.86 81.4629 129.782 81.4907 129.684C81.5219 129.584 81.548 129.455 81.5688 129.299H81.7145V131.157H81.5688C81.548 131.001 81.5219 130.873 81.4907 130.772C81.4629 130.672 81.4196 130.592 81.3606 130.533C81.3016 130.47 81.2218 130.427 81.1211 130.403C81.024 130.378 80.8921 130.366 80.7256 130.366H79.5544V132.115C79.5544 132.212 79.5561 132.299 79.5596 132.375C79.5666 132.448 79.5839 132.511 79.6117 132.563C79.6394 132.611 79.6828 132.65 79.7418 132.677C79.8043 132.702 79.891 132.714 80.0021 132.714H80.8973C81.1298 132.714 81.3207 132.695 81.4699 132.656C81.6191 132.618 81.7475 132.558 81.8551 132.474C81.9661 132.391 82.065 132.283 82.1517 132.152C82.2385 132.016 82.3357 131.855 82.4432 131.668H82.6098L82.1413 133ZM86.3939 133V132.849C86.4529 132.849 86.5136 132.846 86.5761 132.839C86.6385 132.828 86.6958 132.811 86.7478 132.787C86.7999 132.762 86.8433 132.729 86.878 132.688C86.9127 132.643 86.93 132.584 86.93 132.511C86.93 132.441 86.9092 132.344 86.8675 132.219C86.8259 132.094 86.7791 131.966 86.727 131.834C86.675 131.702 86.6229 131.579 86.5709 131.465C86.5188 131.35 86.4824 131.268 86.4616 131.22H84.4003C84.3865 131.248 84.3639 131.294 84.3327 131.36C84.3049 131.423 84.272 131.496 84.2338 131.579C84.1956 131.659 84.1574 131.744 84.1193 131.834C84.0811 131.924 84.0447 132.013 84.01 132.1C83.9787 132.186 83.9527 132.266 83.9319 132.339C83.9111 132.412 83.9007 132.469 83.9007 132.511C83.9007 132.58 83.9232 132.637 83.9683 132.682C84.0134 132.724 84.069 132.757 84.1349 132.781C84.2008 132.806 84.2685 132.823 84.3379 132.833C84.4073 132.84 84.468 132.846 84.5201 132.849V133H82.844V132.849C82.9689 132.846 83.0765 132.816 83.1667 132.761C83.257 132.705 83.335 132.634 83.401 132.547C83.4704 132.46 83.5294 132.365 83.5779 132.261C83.6265 132.153 83.6734 132.047 83.7185 131.943L85.5975 127.566H85.7328L87.5806 131.975C87.6327 132.096 87.6813 132.209 87.7264 132.313C87.775 132.414 87.8322 132.504 87.8982 132.584C87.9641 132.66 88.0439 132.722 88.1376 132.771C88.2313 132.816 88.351 132.842 88.4967 132.849V133H86.3939ZM85.4466 128.768L84.5201 130.934H86.3522L85.4466 128.768ZM94.2848 127.821C94.1252 127.821 93.995 127.835 93.8944 127.863C93.7938 127.89 93.7157 127.937 93.6602 128.003C93.6047 128.069 93.5665 128.156 93.5457 128.263C93.5248 128.367 93.5144 128.496 93.5144 128.649V130.814C93.5144 131.178 93.4797 131.504 93.4103 131.792C93.3444 132.077 93.2316 132.318 93.072 132.516C92.9158 132.714 92.7059 132.866 92.4422 132.974C92.1785 133.078 91.8505 133.13 91.4584 133.13C91.0247 133.13 90.6707 133.076 90.3966 132.969C90.1259 132.861 89.9143 132.705 89.7616 132.5C89.6089 132.292 89.5048 132.039 89.4493 131.74C89.3972 131.438 89.3712 131.095 89.3712 130.71V128.617C89.3712 128.472 89.3642 128.348 89.3504 128.248C89.3365 128.147 89.3053 128.066 89.2567 128.003C89.2116 127.937 89.1422 127.89 89.0485 127.863C88.9583 127.835 88.8351 127.821 88.6789 127.821V127.68H90.8182V127.821C90.6655 127.821 90.5441 127.835 90.4538 127.863C90.3636 127.89 90.2942 127.937 90.2456 128.003C90.1971 128.066 90.1641 128.147 90.1467 128.248C90.1329 128.348 90.1259 128.472 90.1259 128.617V130.944C90.1259 131.19 90.1415 131.426 90.1728 131.652C90.2075 131.874 90.2734 132.07 90.3706 132.24C90.4712 132.407 90.6117 132.54 90.7922 132.641C90.9761 132.738 91.2155 132.787 91.5105 132.787C91.7499 132.787 91.9789 132.748 92.1975 132.672C92.4162 132.596 92.614 132.474 92.7909 132.308C92.8777 132.228 92.9453 132.124 92.9939 131.995C93.0425 131.864 93.0789 131.726 93.1032 131.584C93.1275 131.438 93.1414 131.294 93.1449 131.152C93.1518 131.006 93.1553 130.88 93.1553 130.772V128.617C93.1553 128.451 93.1466 128.317 93.1293 128.217C93.1154 128.112 93.0807 128.031 93.0252 127.972C92.9731 127.913 92.8968 127.873 92.7961 127.852C92.6955 127.831 92.5619 127.821 92.3953 127.821V127.68H94.2848V127.821ZM98.8965 128.93C98.8653 128.628 98.7733 128.4 98.6206 128.248C98.4679 128.092 98.2337 128.014 97.9179 128.014H97.1736V132.073C97.1736 132.237 97.1805 132.368 97.1944 132.469C97.2083 132.57 97.2413 132.65 97.2933 132.709C97.3454 132.764 97.42 132.802 97.5171 132.823C97.6178 132.84 97.7514 132.849 97.9179 132.849V133H95.6693V132.849C95.8359 132.849 95.9678 132.839 96.0649 132.818C96.1621 132.797 96.2367 132.759 96.2887 132.703C96.3408 132.644 96.3738 132.565 96.3876 132.464C96.405 132.363 96.4137 132.233 96.4137 132.073V128.014H95.7734C95.6069 128.014 95.4611 128.029 95.3362 128.06C95.2113 128.088 95.1055 128.137 95.0187 128.206C94.9354 128.276 94.8695 128.369 94.8209 128.487C94.7758 128.605 94.7463 128.753 94.7324 128.93H94.5502L94.6023 127.68H99.0162L99.0683 128.93H98.8965ZM104.945 127.821C104.789 127.821 104.655 127.847 104.544 127.899C104.433 127.951 104.332 128.019 104.242 128.102C104.155 128.185 104.076 128.282 104.003 128.394C103.933 128.501 103.862 128.612 103.789 128.727L102.504 130.741V132.073C102.504 132.237 102.512 132.368 102.53 132.469C102.547 132.57 102.582 132.65 102.634 132.709C102.686 132.764 102.76 132.802 102.858 132.823C102.958 132.84 103.092 132.849 103.258 132.849V133H100.999V132.849C101.166 132.849 101.298 132.839 101.395 132.818C101.492 132.797 101.565 132.759 101.614 132.703C101.666 132.644 101.699 132.565 101.712 132.464C101.726 132.363 101.733 132.233 101.733 132.073V130.814L100.286 128.586C100.231 128.499 100.17 128.411 100.104 128.321C100.042 128.23 99.9722 128.149 99.8959 128.076C99.8195 128 99.7345 127.939 99.6408 127.894C99.5471 127.845 99.4413 127.821 99.3233 127.821V127.68H101.598V127.821C101.542 127.821 101.478 127.824 101.405 127.831C101.336 127.838 101.27 127.854 101.208 127.878C101.145 127.899 101.093 127.934 101.051 127.982C101.01 128.027 100.989 128.09 100.989 128.17C100.989 128.218 101.02 128.307 101.083 128.435C101.149 128.564 101.23 128.709 101.327 128.872C101.428 129.032 101.535 129.2 101.65 129.377C101.764 129.551 101.87 129.712 101.967 129.861C102.068 130.007 102.153 130.13 102.223 130.231C102.292 130.332 102.328 130.387 102.332 130.397L103.388 128.758C103.409 128.723 103.434 128.683 103.461 128.638C103.489 128.59 103.513 128.541 103.534 128.492C103.558 128.44 103.579 128.39 103.597 128.341C103.614 128.289 103.623 128.243 103.623 128.201C103.623 128.128 103.605 128.067 103.571 128.019C103.536 127.97 103.493 127.932 103.441 127.904C103.388 127.873 103.331 127.852 103.269 127.842C103.206 127.828 103.146 127.821 103.087 127.821V127.68H104.945V127.821Z" fill="#DB81FD"/>
  <defs>
    <clipPath id="clip0_415_98">
      <rect width="97.6" height="92" fill="white" transform="translate(4)"/>
    </clipPath>
  </defs>
</svg>
