<svg width="597" height="54" viewBox="0 0 597 54" fill="none" xmlns="http://www.w3.org/2000/svg">
  <path d="M261.127 22.3167C258.563 22.7111 255.408 26.0635 253.831 27.8383C253.239 28.4299 252.45 28.4299 251.859 27.8383C250.281 26.0635 247.126 22.7111 244.562 22.3167C241.013 21.7251 239.829 24.2887 241.21 26.6551C242.393 29.0215 252.253 35.3319 252.845 35.7263C253.436 35.3319 263.296 29.0215 264.479 26.6551C265.663 24.2887 264.677 21.7251 261.127 22.3167Z" fill="#E48AE8"/>
  <path d="M224.051 24.8816C222.473 25.0788 220.501 27.248 219.515 28.234C219.121 28.6284 218.726 28.6284 218.332 28.234C217.346 27.0508 215.374 25.0788 213.796 24.8816C211.627 24.4872 210.838 26.0648 211.627 27.6424C212.416 29.0228 218.529 32.9668 218.924 33.3612C219.318 33.164 225.431 29.22 226.22 27.6424C226.812 26.0648 226.22 24.4872 224.051 24.8816Z" fill="#3F0061"/>
  <path d="M201.572 31.7817C201.572 31.7817 181.654 11.2729 147.539 21.9217C113.423 32.7677 58.2072 59.5869 41.4452 41.8389C29.8104 29.4153 29.2188 15.4141 29.2188 15.4141" stroke="#3F0061" stroke-miterlimit="10" stroke-linecap="round" stroke-linejoin="round"/>
  <path d="M96.4609 8.90625C96.4609 9.89225 105.335 29.2179 128.013 28.8235" stroke="#3F0061" stroke-miterlimit="10"/>
  <path d="M165.288 18.5712C165.288 18.5712 147.54 17.9796 137.68 46.968" stroke="#3F0061" stroke-miterlimit="10"/>
  <path d="M100.604 10.0924C99.2237 12.2616 96.2657 13.0504 93.8993 11.8672C91.5329 10.4868 90.7442 7.72595 92.1246 5.35955C93.505 3.19035 96.4629 2.40156 98.8293 3.58476C101.196 4.96516 101.985 7.726 100.604 10.0924Z" fill="#3F0061"/>
  <path d="M141.815 49.3346C140.435 51.5038 137.477 52.2926 135.11 51.1094C132.744 49.729 131.955 46.9682 133.335 44.6018C134.716 42.4326 137.674 41.6437 140.04 42.8269C142.407 44.2073 143.195 47.1654 141.815 49.3346Z" fill="#3F0061"/>
  <path d="M27.4426 17.19C28.823 17.5844 30.2034 16.2041 29.2174 14.8237C25.6678 9.30207 17.7798 -0.755129 10.089 1.01967C-0.55978 3.38607 -1.94022 6.54125 4.56738 9.49925C9.49738 11.6684 21.3294 15.218 27.4426 17.19Z" fill="#3F0061"/>
  <path d="M30.7961 16.7956C29.4157 17.19 28.0353 15.8095 29.0213 14.4291C32.5709 8.90754 40.4589 -1.14966 48.1497 0.62514C58.7985 2.99154 60.1789 6.14678 53.6713 9.10478C48.7413 11.274 36.9093 15.0208 30.7961 16.7956Z" fill="#3F0061"/>
  <path d="M35.5286 35.5277C35.5286 35.5277 13.6394 15.0188 9.89263 27.048C6.14583 39.2744 35.5286 35.5277 35.5286 35.5277Z" stroke="#3F0061" stroke-miterlimit="10"/>
  <path d="M36.3203 35.3322C36.3203 35.3322 53.2795 10.8794 59.5899 21.9226C65.9003 32.9658 36.3203 35.3322 36.3203 35.3322Z" stroke="#3F0061" stroke-miterlimit="10"/>
  <path d="M36.3138 35.332C36.3138 35.332 35.9194 45.9809 23.693 50.5165C11.4666 55.0521 5.15625 44.6005 5.15625 44.6005" stroke="#3F0061" stroke-miterlimit="10"/>
  <path d="M36.7109 35.5287C36.7109 35.5287 40.0633 42.2335 48.5429 42.0363C57.0225 42.0363 57.4169 33.7539 57.4169 33.7539" stroke="#3F0061" stroke-miterlimit="10"/>
  <path d="M310.422 18.3746C307.069 18.9662 302.928 23.3046 300.956 25.4738C300.364 26.2626 299.181 26.2626 298.392 25.4738C296.42 23.1074 292.279 18.9662 288.927 18.3746C284.391 17.5858 283.011 20.9381 284.588 24.0933C286.166 27.0513 298.787 35.3337 299.575 35.9253C300.364 35.3337 312.985 27.2485 314.563 24.0933C316.338 20.9381 314.957 17.5858 310.422 18.3746Z" fill="#E48AE8"/>
  <path d="M336.26 23.301C338.824 23.6954 341.979 27.0479 343.557 28.8227C344.148 29.4143 344.937 29.4143 345.529 28.8227C347.106 27.0479 350.261 23.6954 352.825 23.301C356.375 22.7094 357.558 25.2731 356.177 27.6395C354.994 30.0059 345.134 36.3163 344.543 36.7107C343.951 36.3163 334.091 30.0059 332.908 27.6395C331.725 25.2731 332.908 22.7094 336.26 23.301Z" fill="#E48AE8"/>
  <path d="M373.531 25.866C375.108 26.0632 377.08 28.2323 378.066 29.2183C378.461 29.6127 378.855 29.6127 379.249 29.2183C380.235 28.0351 382.207 26.0632 383.785 25.866C385.954 25.4716 386.743 27.0492 385.954 28.6268C385.165 30.0072 379.052 33.9512 378.658 34.3456C378.263 34.1484 372.15 30.2044 371.361 28.6268C370.573 27.0492 371.362 25.4716 373.531 25.866Z" fill="#3F0061"/>
  <path d="M396.008 32.5708C396.008 32.5708 415.925 12.062 450.041 22.7108C484.156 33.5568 539.372 60.376 556.134 42.628C567.769 30.2044 568.361 16.2031 568.361 16.2031" stroke="#3F0061" stroke-miterlimit="10" stroke-linecap="round" stroke-linejoin="round"/>
  <path d="M500.919 9.69531C500.919 10.6813 492.045 30.0069 469.367 29.6125" stroke="#3F0061" stroke-miterlimit="10"/>
  <path d="M432.297 19.5556C432.297 19.5556 450.045 18.964 459.905 47.9524" stroke="#3F0061" stroke-miterlimit="10"/>
  <path d="M496.781 11.0758C498.161 13.245 501.119 14.0338 503.486 12.8506C505.852 11.4702 506.641 8.70935 505.26 6.34295C503.88 3.97655 500.922 3.38497 498.556 4.56817C496.189 5.94857 495.4 8.7094 496.781 11.0758Z" fill="#3F0061"/>
  <path d="M455.57 50.3189C456.95 52.4881 459.908 53.2769 462.275 52.0937C464.641 50.7133 465.43 47.9526 464.049 45.5862C462.669 43.417 459.711 42.6281 457.345 43.8113C454.978 45.1917 454.189 48.1497 455.57 50.3189Z" fill="#3F0061"/>
  <path d="M569.945 17.9753C568.564 18.3697 567.184 16.9892 568.17 15.6088C571.719 10.0872 579.607 0.0300272 587.298 1.80483C597.947 4.17123 599.327 7.3264 592.82 10.2844C587.89 12.6508 576.058 16.2005 569.945 17.9753Z" fill="#3F0061"/>
  <path d="M566.786 17.7799C568.167 18.1743 569.547 16.7939 568.561 15.4135C565.012 9.89191 557.124 -0.165285 549.433 1.60951C538.784 3.97591 537.404 7.13115 543.911 10.0892C548.644 12.2584 560.476 15.8079 566.786 17.7799Z" fill="#3F0061"/>
  <path d="M561.859 36.5121C561.859 36.5121 583.749 16.0032 587.495 28.0324C591.242 40.0616 561.859 36.5121 561.859 36.5121Z" stroke="#3F0061" stroke-miterlimit="10"/>
  <path d="M561.067 36.3166C561.067 36.3166 544.107 11.8638 537.797 22.907C531.487 33.9502 561.067 36.3166 561.067 36.3166Z" stroke="#3F0061" stroke-miterlimit="10"/>
  <path d="M561.07 36.3164C561.07 36.3164 561.465 46.9652 573.691 51.5008C585.918 56.0364 592.228 45.5848 592.228 45.5848" stroke="#3F0061" stroke-miterlimit="10"/>
  <path d="M560.87 36.5131C560.87 36.5131 557.518 43.2178 549.038 43.0206C540.558 43.0206 540.164 34.7383 540.164 34.7383" stroke="#3F0061" stroke-miterlimit="10"/>
</svg>
