<svg width="593" height="70" viewBox="0 0 593 70" fill="none" xmlns="http://www.w3.org/2000/svg">
  <path d="M587.665 36.6172H402.297" stroke="#3F0061" stroke-miterlimit="10" stroke-linecap="round"/>
  <path d="M492.611 18.8678C493.005 23.009 498.921 23.7978 501.879 21.6286C508.19 17.2902 505.232 6.64139 499.513 3.09179C489.456 -2.82421 479.004 8.41623 480.976 18.6706C482.751 27.5446 490.442 35.4326 499.513 36.2214" stroke="#3F0061" stroke-miterlimit="10" stroke-linecap="round"/>
  <path d="M497.544 53.3792C496.755 49.6324 502.276 47.4632 505.629 48.4492C512.925 50.6184 512.925 60.4784 508.192 65.014C499.91 72.902 486.895 66 486.106 56.7316C485.317 48.6464 490.839 39.7724 499.318 36.6172" stroke="#3F0061" stroke-miterlimit="10" stroke-linecap="round"/>
  <path d="M398.353 19.0631C398.747 23.2043 404.663 23.9931 407.621 21.8239C413.932 17.4855 410.974 6.8367 405.255 3.2871C395.198 -2.6289 384.746 8.61149 386.718 18.8659C388.493 27.7399 396.184 35.6279 405.255 36.4167" stroke="#3F0061" stroke-miterlimit="10" stroke-linecap="round"/>
  <path d="M403.278 53.5745C402.489 49.8277 408.011 47.6585 411.363 48.6445C418.66 50.8137 418.66 60.6737 413.927 65.2093C405.644 73.0973 392.629 66.1953 391.84 56.9269C391.052 48.8417 396.573 39.9677 405.053 36.8125" stroke="#3F0061" stroke-miterlimit="10" stroke-linecap="round"/>
  <path d="M587.857 33.4598L585.491 32.2766C585.294 32.0794 584.9 32.2766 585.097 32.671L585.491 35.4318C585.491 35.629 585.491 35.629 585.491 35.8262L583.519 37.7982C583.322 37.9954 583.519 38.3898 583.716 38.3898L586.477 38.7842C586.674 38.7842 586.674 38.7842 586.674 38.9814L587.857 41.3478C588.055 41.545 588.252 41.545 588.449 41.3478L589.632 38.9814C589.632 38.7842 589.829 38.7842 589.829 38.7842L592.59 38.3898C592.788 38.3898 592.985 37.9954 592.787 37.7982L590.815 35.8262C590.815 35.8262 590.618 35.629 590.815 35.4318L591.21 32.671C591.21 32.4738 591.013 32.2766 590.815 32.2766L588.449 33.4598C588.055 33.657 588.055 33.657 587.857 33.4598Z" fill="#3F0061"/>
  <path d="M5.72656 36.6172H191.095" stroke="#3F0061" stroke-miterlimit="10" stroke-linecap="round"/>
  <path d="M100.973 18.8678C100.579 23.009 94.6626 23.7978 91.7046 21.6286C85.3942 17.2902 88.3523 6.64139 94.0711 3.09179C104.128 -2.82421 114.58 8.41623 112.608 18.6706C110.833 27.5446 103.142 35.4326 94.0711 36.2214" stroke="#3F0061" stroke-miterlimit="10" stroke-linecap="round"/>
  <path d="M96.039 53.3792C96.8278 49.6324 91.3062 47.4632 87.9538 48.4492C80.6574 50.6184 80.6573 60.4784 85.3901 65.014C93.6725 72.902 106.688 66 107.477 56.7316C108.265 48.6464 102.744 39.7724 94.2641 36.6172" stroke="#3F0061" stroke-miterlimit="10" stroke-linecap="round"/>
  <path d="M195.036 19.0631C194.641 23.2043 188.725 23.9931 185.767 21.8239C179.457 17.4855 182.415 6.8367 188.134 3.2871C198.191 -2.6289 208.642 8.61149 206.67 18.8659C204.896 27.7399 197.205 35.6279 188.134 36.4167" stroke="#3F0061" stroke-miterlimit="10" stroke-linecap="round"/>
  <path d="M190.109 53.5745C190.898 49.8277 185.376 47.6585 182.024 48.6445C174.728 50.8137 174.728 60.6737 179.46 65.2093C187.743 73.0973 200.758 66.1953 201.547 56.9269C202.336 48.8417 196.814 39.9677 188.334 36.8125" stroke="#3F0061" stroke-miterlimit="10" stroke-linecap="round"/>
  <path d="M5.52731 33.4598L7.89373 32.2766C8.09093 32.0794 8.48535 32.2766 8.28815 32.671L7.89373 35.4318C7.89373 35.629 7.89373 35.629 7.89373 35.8262L9.86573 37.7982C10.0629 37.9954 9.86572 38.3898 9.66852 38.3898L6.90773 38.7842C6.71053 38.7842 6.71052 38.7842 6.71052 38.9814L5.52731 41.3478C5.33011 41.545 5.13293 41.545 4.93573 41.3478L3.75252 38.9814C3.75252 38.7842 3.55531 38.7842 3.55531 38.7842L0.794517 38.3898C0.597317 38.3898 0.400105 37.9954 0.597305 37.7982L2.56931 35.8262C2.56931 35.8262 2.76651 35.629 2.56931 35.4318L2.17494 32.671C2.17494 32.4738 2.37211 32.2766 2.56931 32.2766L4.93573 33.4598C5.33013 33.657 5.33011 33.657 5.52731 33.4598Z" fill="#3F0061"/>
  <path d="M303.694 34.054C303.694 38.5896 300.144 42.1392 295.609 42.1392C291.073 42.1392 287.523 38.5896 287.523 34.054C287.523 29.5184 291.073 25.9688 295.609 25.9688C300.144 25.9688 303.694 29.7156 303.694 34.054Z" fill="#3F0061"/>
</svg>
